<svg xmlns:xlink="http://www.w3.org/1999/xlink" xmlns="http://www.w3.org/2000/svg" width="2357" height="488" viewBox="0 0 2357 488" fill="none">
  <path d="M619.8 226H691C702.467 226 712.333 222.933 720.6 216.8C729.133 210.4 733.4 200.933 733.4 188.4C733.4 177.2 730.333 169.6 724.2 165.6C718.333 161.333 710.333 159.2 700.2 159.2H633.8L619.8 226ZM583.4 110.4H703.4C717.8 110.4 730.733 111.333 742.2 113.2C753.667 115.067 763.4 118.533 771.4 123.6C779.4 128.4 785.533 135.2 789.8 144C794.067 152.533 796.2 163.6 796.2 177.2C796.2 185.2 795 193.067 792.6 200.8C790.2 208.267 786.6 215.067 781.8 221.2C777.267 227.067 771.667 232 765 236C758.6 240 751.133 242.533 742.6 243.6V244.4C756.2 248.133 766.6 255.333 773.8 266C781.267 276.4 785 288.533 785 302.4C785 317.867 781.933 331.467 775.8 343.2C769.933 354.933 761.933 364.667 751.8 372.4C741.667 380.133 730.067 386 717 390C703.933 394 690.2 396 675.8 396H523.8L583.4 110.4ZM594.2 347.2H673C687.4 347.2 699.133 343.333 708.2 335.6C717.533 327.867 722.2 316.4 722.2 301.2C722.2 293.733 720.6 287.867 717.4 283.6C714.467 279.333 710.6 276.133 705.8 274C701 271.6 695.667 270.133 689.8 269.6C683.933 269.067 678.2 268.8 672.6 268.8H611L594.2 347.2ZM837.672 110.4H894.472L833.672 396H777.272L837.672 110.4ZM877.188 252C879.054 238.933 883.054 228.133 889.188 219.6C895.321 210.8 902.788 203.733 911.588 198.4C920.388 193.067 930.254 189.333 941.188 187.2C952.121 184.8 963.454 183.6 975.188 183.6C984.521 183.6 994.254 184.267 1004.39 185.6C1014.52 186.933 1023.85 189.6 1032.39 193.6C1040.92 197.333 1047.85 202.8 1053.19 210C1058.79 216.933 1061.45 226.267 1061.19 238C1061.19 247.867 1059.72 259.467 1056.79 272.8L1038.39 356C1037.32 359.733 1036.52 364.4 1035.99 370C1035.72 375.333 1035.59 380 1035.59 384C1035.59 387.467 1036.25 391.467 1037.59 396H980.788V375.6C973.054 384.4 963.588 390.933 952.388 395.2C941.188 399.2 929.588 401.2 917.588 401.2C906.388 401.2 896.521 399.733 887.988 396.8C879.721 393.867 872.788 390 867.188 385.2C861.588 380.133 857.454 374.4 854.788 368C852.121 361.333 850.787 354.4 850.787 347.2C850.787 327.2 857.588 311.2 871.188 299.2C885.054 287.2 904.521 279.733 929.588 276.8C942.921 275.2 954.521 274 964.388 273.2C974.254 272.4 982.388 271.2 988.788 269.6C995.454 267.733 1000.39 265.2 1003.59 262C1006.79 258.533 1008.39 253.467 1008.39 246.8C1008.39 241.467 1007.19 237.2 1004.79 234C1002.39 230.8 999.321 228.267 995.588 226.4C992.121 224.533 988.254 223.333 983.988 222.8C979.988 222 976.121 221.6 972.388 221.6C962.254 221.6 953.188 224.133 945.188 229.2C937.188 234 932.254 241.6 930.388 252H877.188ZM997.188 296.8C989.988 301.067 982.254 303.733 973.988 304.8C965.721 305.6 957.454 306.267 949.188 306.8C943.854 307.333 938.654 308.267 933.588 309.6C928.521 310.667 923.988 312.4 919.988 314.8C916.254 317.2 913.188 320.533 910.788 324.8C908.388 328.8 907.188 334 907.188 340.4C907.188 348.133 910.254 354 916.388 358C922.788 361.733 930.121 363.6 938.388 363.6C947.188 363.6 954.521 362.267 960.388 359.6C966.521 356.667 971.588 353.067 975.588 348.8C979.854 344.267 983.188 339.2 985.588 333.6C987.988 328 989.988 322.4 991.588 316.8L997.188 296.8ZM1207.68 260.8C1207.68 248.533 1204.48 239.733 1198.08 234.4C1191.94 229.067 1182.48 226.4 1169.68 226.4C1159.01 226.4 1149.94 229.333 1142.48 235.2C1135.01 240.8 1129.01 248 1124.48 256.8C1119.94 265.6 1116.61 275.2 1114.48 285.6C1112.61 295.733 1111.68 305.2 1111.68 314C1111.68 320.133 1112.34 326 1113.68 331.6C1115.01 336.933 1117.28 341.6 1120.48 345.6C1123.68 349.6 1127.68 352.8 1132.48 355.2C1137.54 357.6 1143.68 358.8 1150.88 358.8C1157.28 358.8 1162.88 357.733 1167.68 355.6C1172.74 353.467 1177.14 350.667 1180.88 347.2C1184.88 343.733 1188.08 339.733 1190.48 335.2C1193.14 330.4 1195.28 325.467 1196.88 320.4H1253.68C1245.14 346.267 1231.94 366.267 1214.08 380.4C1196.48 394.267 1174.08 401.2 1146.88 401.2C1117.81 401.2 1095.14 394.133 1078.88 380C1062.88 365.6 1054.88 343.2 1054.88 312.8C1054.88 295.2 1057.41 278.667 1062.48 263.2C1067.81 247.467 1075.41 233.733 1085.28 222C1095.41 210 1107.68 200.667 1122.08 194C1136.48 187.067 1153.01 183.6 1171.68 183.6C1184.21 183.6 1196.08 185.067 1207.28 188C1218.48 190.933 1228.21 195.467 1236.48 201.6C1245.01 207.733 1251.68 215.733 1256.47 225.6C1261.54 235.467 1264.21 247.2 1264.48 260.8H1207.68ZM1296.34 110.4H1353.14L1320.34 265.6L1321.14 266.4L1402.74 189.2H1472.74L1379.94 267.6L1433.14 396H1370.74L1336.74 303.6L1307.14 328.8L1293.14 396H1236.74L1296.34 110.4ZM1469.81 189.2H1524.21L1517.81 218.4H1518.61C1527.14 206.4 1537.54 197.6 1549.81 192C1562.07 186.4 1575.81 183.6 1591.01 183.6C1603.81 183.6 1614.74 186.4 1623.81 192C1632.87 197.6 1638.61 206.8 1641.01 219.6C1644.47 214.267 1648.87 209.467 1654.21 205.2C1659.54 200.667 1665.27 196.8 1671.41 193.6C1677.54 190.4 1683.94 188 1690.61 186.4C1697.54 184.533 1704.34 183.6 1711.01 183.6C1719.01 183.6 1726.74 184.667 1734.21 186.8C1741.94 188.933 1748.74 192.133 1754.61 196.4C1760.47 200.667 1765.14 206.133 1768.61 212.8C1772.07 219.467 1773.81 227.2 1773.81 236C1773.81 242.4 1773.14 248.933 1771.81 255.6C1770.47 262 1769.14 268.267 1767.81 274.4L1742.21 396H1685.41L1712.61 265.2C1713.67 259.867 1714.21 254.933 1714.21 250.4C1714.21 244.267 1711.81 239.067 1707.01 234.8C1702.47 230.533 1696.61 228.4 1689.41 228.4C1681.94 228.4 1675.14 230.267 1669.01 234C1663.14 237.467 1657.94 242 1653.41 247.6C1649.14 252.933 1645.54 258.933 1642.61 265.6C1639.67 272.267 1637.54 278.8 1636.21 285.2L1613.01 396H1555.81L1583.01 265.2C1584.07 259.867 1584.61 254.933 1584.61 250.4C1584.61 244.267 1582.21 239.067 1577.41 234.8C1572.87 230.533 1567.01 228.4 1559.81 228.4C1552.34 228.4 1545.54 230.267 1539.41 234C1533.54 237.467 1528.34 242 1523.81 247.6C1519.54 252.933 1515.94 258.933 1513.01 265.6C1510.07 272.267 1507.94 278.8 1506.61 285.2L1483.41 396H1427.01L1469.81 189.2ZM1953.5 396H1899.1L1905.5 367.2H1904.7C1886.3 389.867 1862.16 401.2 1832.3 401.2C1792.03 401.2 1771.9 382.8 1771.9 346C1771.9 343.867 1772.03 341.2 1772.3 338C1772.83 334.533 1773.36 331.067 1773.9 327.6C1774.7 324.133 1775.36 320.933 1775.9 318C1776.7 314.8 1777.36 312.267 1777.9 310.4L1803.5 189.2H1860.3L1835.1 310.4C1834.56 312 1834.03 314 1833.5 316.4C1833.23 318.533 1832.83 320.8 1832.3 323.2C1832.03 325.6 1831.76 328 1831.5 330.4C1831.5 332.533 1831.5 334.267 1831.5 335.6C1831.5 341.733 1834.3 346.8 1839.9 350.8C1845.76 354.8 1852.03 356.8 1858.7 356.8C1867.23 356.8 1874.7 355.2 1881.1 352C1887.76 348.533 1893.36 344.133 1897.9 338.8C1902.7 333.467 1906.56 327.333 1909.5 320.4C1912.7 313.467 1915.1 306.4 1916.7 299.2L1939.9 189.2H1996.7L1953.5 396ZM2097.63 226.4C2086.96 226.4 2077.63 229.2 2069.63 234.8C2061.89 240.4 2055.49 247.467 2050.43 256C2045.36 264.533 2041.63 273.867 2039.23 284C2036.83 294.133 2035.63 303.733 2035.63 312.8C2035.63 318.933 2036.43 324.8 2038.03 330.4C2039.89 336 2042.43 340.933 2045.63 345.2C2049.09 349.2 2053.36 352.533 2058.43 355.2C2063.49 357.6 2069.36 358.8 2076.03 358.8C2086.69 358.8 2095.89 356 2103.63 350.4C2111.36 344.533 2117.76 337.2 2122.83 328.4C2128.16 319.6 2132.03 310.133 2134.43 300C2137.09 289.6 2138.43 280 2138.43 271.2C2138.43 257.6 2135.09 246.8 2128.43 238.8C2121.76 230.533 2111.49 226.4 2097.63 226.4ZM2120.43 370.4L2119.63 369.6C2113.23 380.8 2104.43 388.933 2093.23 394C2082.29 398.8 2070.43 401.2 2057.63 401.2C2032.56 401.2 2013.09 394 1999.23 379.6C1985.63 364.933 1978.83 345.067 1978.83 320C1978.83 302.933 1981.09 286.267 1985.63 270C1990.16 253.733 1997.09 239.2 2006.43 226.4C2015.76 213.6 2027.49 203.333 2041.63 195.6C2055.76 187.6 2072.43 183.6 2091.63 183.6C2103.63 183.6 2115.09 186.267 2126.03 191.6C2137.23 196.933 2145.09 205.333 2149.63 216.8H2150.43L2173.23 110.4H2230.03L2169.63 396H2114.83L2120.43 370.4Z" fill="white"/>
  <path d="M2253.9 147.4H2278.9C2281.7 147.4 2284.33 147 2286.8 146.2C2289.27 145.4 2291.4 144.233 2293.2 142.7C2295 141.1 2296.43 139.133 2297.5 136.8C2298.57 134.467 2299.1 131.8 2299.1 128.8C2299.1 125.6 2298.53 123.133 2297.4 121.4C2296.27 119.6 2294.73 118.267 2292.8 117.4C2290.87 116.467 2288.63 115.9 2286.1 115.7C2283.63 115.5 2281 115.4 2278.2 115.4H2260.8L2253.9 147.4ZM2246.3 183H2241.9L2257.2 111.6H2279.4C2282.8 111.6 2285.97 111.8 2288.9 112.2C2291.83 112.6 2294.37 113.433 2296.5 114.7C2298.7 115.9 2300.4 117.633 2301.6 119.9C2302.87 122.167 2303.5 125.133 2303.5 128.8C2303.5 132.733 2302.8 136.133 2301.4 139C2300 141.8 2298.1 144.1 2295.7 145.9C2293.37 147.7 2290.6 149.033 2287.4 149.9C2284.27 150.767 2280.93 151.2 2277.4 151.2H2253.1L2246.3 183ZM2321.48 111.6H2325.88L2311.38 179.2H2351.68L2350.88 183H2306.18L2321.48 111.6Z" fill="white"/>
  <circle cx="240.5" cy="240.5" r="237.5" stroke="white" stroke-width="6"/>
  <circle cx="323.145" cy="232.201" r="152.78" stroke="white" stroke-width="6"/>
  <circle cx="331.963" cy="292.196" r="91.0561" stroke="white" stroke-width="6"/>
  <circle cx="301.706" cy="302.051" r="58.3785" stroke="white" stroke-width="6"/>
  <circle cx="38.0374" cy="38.0374" r="35.0374" transform="matrix(-1 0 0 1 341.645 240.673)" stroke="white" stroke-width="6"/>
  <circle cx="25.0701" cy="25.0701" r="22.0701" transform="matrix(-1 0 0 1 341.645 253.813)" stroke="white" stroke-width="6"/>
  <circle cx="14.8692" cy="14.8692" r="11.8692" transform="matrix(-1 0 0 1 331.962 273.177)" stroke="white" stroke-width="6"/>
  <circle cx="7.43458" cy="7.43458" r="4.43458" transform="matrix(-1 0 0 1 320.23 280.439)" stroke="white" stroke-width="6"/>
</svg>